<svg width="141" height="14" viewBox="0 0 141 14" fill="none" xmlns="http://www.w3.org/2000/svg">
<path d="M41.7128 0.0332031C41.3964 0.476181 41.0602 0.697667 40.7241 0.697667C40.546 0.697667 40.289 0.637264 39.9528 0.496316C39.1815 0.194286 38.5092 0.0332031 37.8961 0.0332031C36.5119 0.0332031 35.2067 0.435911 33.9608 1.24133C32.7348 2.04674 31.746 3.11391 31.0143 4.44285C30.2826 5.77178 29.9266 7.18123 29.9266 8.65113C29.9266 10.2821 30.3815 11.5707 31.2912 12.5372C32.2008 13.4836 33.3873 13.9669 34.831 13.9669C37.1447 13.9669 38.9641 12.8594 40.289 10.6244H39.933C38.6674 12.4567 37.1644 13.3628 35.4044 13.3628C32.6952 13.3628 31.0538 11.611 31.0538 8.87263C31.0538 7.04032 31.7262 5.00664 32.8336 3.3354C33.9608 1.66417 35.8197 0.476181 37.8566 0.476181C39.2408 0.476181 41.1393 1.2816 40.7438 4.34217H40.9811L41.9501 0.0332031H41.7128Z" fill="white"/>
<path d="M45.0305 13.6648L45.1095 13.4031C43.9032 13.4031 43.4089 13.1212 43.4089 12.3963C43.4089 12.1144 43.5077 11.6311 43.6857 10.9667L44.8327 6.83893H51.6552L50.2907 11.7318C49.9743 12.9198 49.3613 13.4031 47.9572 13.4031L47.8781 13.6648H52.7626L52.8418 13.4031C51.5959 13.4031 51.1411 13.101 51.1411 12.3963C51.1411 12.1144 51.24 11.6311 51.4179 10.9667L53.8305 2.32863C54.2062 1.03997 54.7797 0.596993 56.1838 0.596993L56.2629 0.335233H51.3784L51.2992 0.596993C52.5055 0.596993 52.9802 0.899025 52.9802 1.60376C52.9802 1.98633 52.8615 2.55012 52.644 3.31526L51.7738 6.41611H44.9513L46.0983 2.32863C46.4741 1.06011 47.0871 0.596993 48.4516 0.596993L48.5307 0.335233H43.6461L43.5671 0.596993C44.8129 0.596993 45.248 0.899025 45.248 1.60376C45.248 1.98633 45.1293 2.55012 44.9118 3.31526L42.5585 11.7318C42.2223 12.9399 41.5895 13.4031 40.225 13.4031L40.1459 13.6648H45.0305Z" fill="white"/>
<path d="M65.4718 13.6648L65.571 13.4031C64.8391 13.4031 64.3051 13.242 63.969 12.9399C63.6526 12.6178 63.3164 11.8929 62.9407 10.7653L61.6948 7.02014C62.7033 6.87922 63.5537 6.45638 64.2656 5.79192C64.9973 5.10732 65.3532 4.28176 65.3532 3.29513C65.3532 1.44268 64.147 0.335233 61.7937 0.335233H57.5815L57.5024 0.596993C58.5901 0.596993 59.124 0.939295 59.124 1.60376C59.124 1.98633 59.0054 2.55012 58.7878 3.31526L56.4345 11.7318C56.1182 12.8795 55.5249 13.4031 54.1011 13.4031L54.0219 13.6648H58.9065L58.9855 13.4031C57.72 13.4031 57.2849 13.0608 57.2849 12.3963C57.2849 12.1748 57.3837 11.6915 57.5618 10.9667L58.7087 6.85911C59.2229 7.04032 59.7766 7.12083 60.3501 7.12083H60.8049L62.9407 13.6648H65.4718ZM60.3896 0.838616C60.6269 0.798346 60.884 0.778214 61.1608 0.778214C63.1582 0.778214 64.1667 1.6239 64.1667 3.31526C64.1667 4.22136 63.8108 5.02677 63.1186 5.69124C62.4265 6.3557 61.4773 6.67784 60.3106 6.67784C59.8161 6.67784 59.302 6.61744 58.8076 6.47652L60.3896 0.838616Z" fill="white"/>
<path d="M74.1102 0.0332031C72.9825 0.0332031 71.9151 0.335233 70.8665 0.939295C69.8386 1.54336 68.9683 2.3085 68.2761 3.23472C66.9119 5.06704 66.0221 7.36244 66.0221 9.31562C66.0221 10.6244 66.3779 11.7318 67.1095 12.6379C67.8412 13.5239 68.8101 13.9669 70.0557 13.9669C72.0531 13.9669 73.952 13.0205 75.1977 11.6513C75.8302 10.9667 76.3843 10.2015 76.8386 9.37602C77.7686 7.70474 78.2035 6.03354 78.2035 4.66434C78.2035 3.31527 77.8276 2.20782 77.0764 1.342C76.3448 0.476181 75.3558 0.0332031 74.1102 0.0332031ZM73.9319 0.415774C75.8503 0.415774 77.0369 1.72457 77.0369 4.24149C77.0369 5.83219 76.7006 7.36244 76.0084 8.83234C75.3357 10.3022 74.4854 11.4499 73.4374 12.3158C72.3895 13.1614 71.361 13.5843 70.313 13.5843C68.2761 13.5843 67.1886 12.1949 67.1886 9.71832C67.1886 8.61084 67.3863 7.48331 67.7622 6.35571C68.1374 5.20799 68.6319 4.22136 69.245 3.35553C70.4913 1.60376 72.2508 0.415774 73.9319 0.415774Z" fill="white"/>
<path d="M80.0713 0.335233L79.9721 0.637264C80.9805 0.637264 81.6331 0.878886 82.1672 1.74471L79.359 11.752C79.0427 12.8997 78.4296 13.4031 77.3026 13.4031L77.243 13.6648H81.1983L81.2773 13.4031C80.2689 13.4031 79.7744 13.0608 79.7744 12.3963C79.7744 12.1144 79.8729 11.6311 80.0512 10.9667L82.4439 2.44945H82.4834L86.7355 13.9669H86.8936L90.1367 2.48972C90.3544 1.74471 90.6111 1.26146 90.9079 0.999704C91.2047 0.737944 91.6791 0.617129 92.3317 0.617129L92.4108 0.335233H88.2974L88.2183 0.596993C89.3454 0.596993 89.7608 0.878886 89.7608 1.60376C89.7608 1.94606 89.6422 2.50985 89.4251 3.31526L87.0122 12.0137H86.9727L82.6811 0.335233H80.0713Z" fill="white"/>
<path d="M94.7219 13.6648L94.8009 13.4031C93.5547 13.4031 93.1003 13.101 93.1003 12.3963C93.1003 12.1144 93.1989 11.6311 93.3771 10.9667L95.7893 2.32863C96.1651 1.03997 96.7193 0.596993 98.1425 0.596993L98.2222 0.335233H93.3375L93.2585 0.596993C94.5041 0.596993 94.939 0.939295 94.939 1.60376C94.939 2.06688 94.8204 2.63066 94.6033 3.31526L92.2494 11.7318C91.9137 12.9399 91.2805 13.4031 89.9163 13.4031L89.8372 13.6648H94.7219Z" fill="white"/>
<path d="M109.056 0.0332031C108.739 0.476181 108.404 0.697667 108.067 0.697667C107.889 0.697667 107.632 0.637264 107.296 0.496316C106.525 0.194286 105.852 0.0332031 105.239 0.0332031C103.855 0.0332031 102.55 0.435911 101.304 1.24133C100.078 2.04674 99.0893 3.11391 98.3576 4.44285C97.6259 5.77178 97.2695 7.18123 97.2695 8.65113C97.2695 10.2821 97.7244 11.5707 98.6344 12.5372C99.5436 13.4836 100.73 13.9669 102.174 13.9669C104.488 13.9669 106.307 12.8594 107.632 10.6244H107.276C106.01 12.4567 104.507 13.3628 102.748 13.3628C100.038 13.3628 98.3972 11.611 98.3972 8.87263C98.3972 7.04032 99.0692 5.00664 100.177 3.3354C101.304 1.66417 103.163 0.476181 105.199 0.476181C106.584 0.476181 108.483 1.2816 108.087 4.34217H108.324L109.293 0.0332031H109.056Z" fill="white"/>
<path d="M113.441 2.32863C113.817 1.03997 114.371 0.596993 115.854 0.596993L115.933 0.335233H110.989L110.91 0.596993C112.175 0.596993 112.591 0.899025 112.591 1.60376C112.591 1.98633 112.472 2.55012 112.255 3.31526L109.901 11.7318C109.566 12.9198 108.992 13.4031 107.568 13.4031L107.489 13.6648H116.941L118.188 9.91964H117.95C117.298 11.309 116.665 12.1748 116.032 12.5574C115.419 12.9198 114.272 13.101 112.611 13.101C111.048 13.101 110.752 12.9601 110.752 12.3963C110.752 12.054 110.851 11.5909 111.029 10.9667L113.441 2.32863Z" fill="white"/>
<path d="M120.396 11.7318C120.02 13.0004 119.387 13.4031 118.062 13.4031L117.983 13.6648H127.97L129.176 10.0002H128.939C128.207 11.3492 127.495 12.2352 126.763 12.6178C126.052 13.0004 124.805 13.1816 123.026 13.1816C121.681 13.1816 121.207 13.101 121.207 12.4768C121.207 12.2352 121.306 11.7318 121.523 10.9868L122.65 6.91951H125.201C126.526 6.91951 126.941 7.60412 126.625 9.27533H126.862L128.207 4.42271H127.97C127.634 5.28853 127.238 5.83219 126.823 6.07381C126.407 6.31543 125.696 6.43625 124.726 6.43625H122.788L124.351 0.818484H127.396C129.374 0.818484 130.026 1.58363 129.729 3.49648H129.967L130.798 0.335233H121.543L121.464 0.596993C122.571 0.596993 123.085 0.878886 123.085 1.60376C123.085 1.98633 122.967 2.55012 122.749 3.31526L120.396 11.7318Z" fill="white"/>
<path d="M130.276 13.9669C130.494 13.4031 130.83 13.1212 131.245 13.1212C131.462 13.1212 131.917 13.2621 132.59 13.544C133.282 13.8259 133.935 13.9669 134.547 13.9669C135.635 13.9669 136.545 13.5843 137.237 12.8393C137.949 12.0741 138.305 11.1278 138.305 10.0203C138.305 8.18802 136.663 6.81882 135.359 5.65097C134.488 4.82542 133.776 3.83878 133.776 2.87229C133.776 1.56349 134.785 0.496316 136.308 0.496316C137.435 0.496316 138.286 0.878886 138.819 1.66417C139.373 2.44945 139.531 3.37567 139.274 4.46298H139.511L140.5 0.0332031H140.263C139.986 0.596993 139.63 0.878886 139.215 0.878886C139.155 0.878886 138.779 0.737944 138.107 0.456046C137.455 0.174151 136.822 0.0332031 136.228 0.0332031C135.319 0.0332031 134.547 0.35537 133.915 0.999704C133.282 1.64404 132.965 2.38904 132.965 3.21459C132.965 4.9865 134.588 6.37584 135.853 7.62423C136.723 8.44981 137.415 9.49683 137.415 10.4834C137.415 11.3492 137.138 12.0741 136.565 12.6581C136.011 13.2218 135.299 13.5037 134.449 13.5037C133.223 13.5037 132.333 13.0809 131.799 12.2352C131.265 11.3895 131.107 10.3223 131.364 9.01354H131.127L130.039 13.9669H130.276Z" fill="white"/>
<path d="M3.81284 8.44265L6.45942 1.58587L9.01344 8.44265H3.81284ZM5.81165 0.311928L0.5 13.6883H1.83254L3.42419 9.52924H9.4391L11.0493 13.6883H12.4003L7.21825 0.311928H5.81165Z" fill="white"/>
<path d="M14.8596 6.86894V1.39852H19.1904C20.0664 1.39852 20.7759 1.62333 21.3188 2.07296C21.8617 2.52258 22.1331 3.20951 22.1331 4.13373C22.1331 5.05796 21.8617 5.74488 21.3188 6.19451C20.7759 6.64412 20.0664 6.86894 19.1904 6.86894H14.8596ZM13.6012 0.311928V13.6883H14.8596V7.95553H19.468C20.0602 7.95553 20.597 7.87436 21.0782 7.71197C21.5594 7.53714 21.9727 7.28733 22.3182 6.9626C22.6637 6.62538 22.9289 6.21949 23.114 5.74488C23.2991 5.27028 23.3916 4.73323 23.3916 4.13373C23.3916 3.53424 23.2991 2.99718 23.114 2.52258C22.9289 2.04798 22.6637 1.64831 22.3182 1.32358C21.9727 0.986367 21.5594 0.73657 21.0782 0.574208C20.597 0.399355 20.0602 0.311928 19.468 0.311928H13.6012Z" fill="white"/>
</svg>
