<svg width="142" height="48" viewBox="0 0 142 48" fill="none" xmlns="http://www.w3.org/2000/svg">
<g clip-path="url(#clip0_4457_218610)">
<path d="M19.1276 17.4942C19.8276 17.4942 20.4364 18.1859 20.4364 19.2843V27.8484C20.4364 30.9912 19.0971 30.7369 17.6869 30.7369C16.2766 30.7369 16.1143 29.3944 16.1143 27.828V19.2843C16.1143 18.1859 16.723 17.4942 17.4231 17.4942V17.0467H12.6241V17.4942C13.3242 17.4942 13.9634 18.1859 13.9634 19.2843V28.5502C13.9634 30.3403 14.9678 31.6625 17.3013 31.6625C19.6348 31.6625 21.0857 31.5405 21.0857 27.7873V19.2843C21.0857 18.1859 21.6944 17.4942 22.3945 17.4942V17.0467H19.1174V17.4942H19.1276Z" fill="white"/>
<path d="M120.686 17.4942C121.386 17.4942 121.944 18.1859 121.944 19.2843V27.8484C121.944 30.9912 120.605 30.7369 119.195 30.7369C117.785 30.7369 117.622 29.3944 117.622 27.828V19.2843C117.622 18.1859 118.211 17.4942 118.911 17.4942V17.0467H114.183V17.4942C114.883 17.4942 115.471 18.1859 115.471 19.2843V28.5502C115.471 30.3403 116.476 31.6625 118.809 31.6625C121.143 31.6625 122.594 31.5405 122.594 27.7873V19.2843C122.594 18.1859 123.152 17.4942 123.852 17.4942V17.0467H120.676V17.4942H120.686Z" fill="white"/>
<path d="M28.4617 17.057H23.0743V17.5045C23.7743 17.5045 24.3628 18.1962 24.3628 19.2946V29.1707C24.3628 30.2692 23.7743 30.9608 23.0743 30.9608V31.3982H29.111C30.085 31.3982 31.201 30.8591 31.8909 28.947C32.5605 26.9534 32.6417 25.3362 32.5504 22.8443C32.4185 20.3728 32.0025 18.8675 31.4039 18.1148C30.8053 17.3621 29.8415 17.0672 28.4617 17.0672V17.057ZM28.7965 30.6455C28.6037 30.6964 27.7819 30.7879 27.1021 30.7269C26.5441 30.6761 26.5238 30.6049 26.5238 29.4148V19.1522C26.5238 17.9724 26.8282 17.6876 27.8225 17.6876C28.8168 17.6876 29.5878 18.0334 29.9937 19.081C30.8155 21.1153 30.6836 24.8887 30.4502 27.757C30.4502 27.757 30.1357 30.2896 28.7965 30.6455Z" fill="white"/>
<path d="M37.3797 30.7166C36.6898 30.6353 36.6087 30.3403 36.6087 29.2622V24.5326C38.161 24.6547 38.303 24.6547 38.6987 26.638H39.1147V21.7051H38.6987C38.3639 23.5766 38.1508 23.6783 36.6087 23.8003V18.9792C36.6087 17.9011 36.7 17.7079 37.187 17.7384L38.0798 17.7791C40.2002 17.8604 40.3119 19.0911 40.4437 19.8133H40.9713V17.0671H33.1388V17.5146C33.8389 17.5146 34.4578 18.2062 34.4578 19.3047V29.1808C34.4578 30.2793 33.849 30.9709 33.1388 30.9709V31.4083H41.0728L41.6714 28.8146H41.0728C40.3727 31.1337 38.445 30.7675 37.3797 30.737V30.7166Z" fill="white"/>
<path d="M128.742 30.7166C128.052 30.6353 127.971 30.3403 127.971 29.2622V24.5326C129.523 24.6547 129.665 24.6547 130.061 26.638H130.477V21.7051H130.061C129.726 23.5766 129.523 23.6783 127.971 23.8003V18.9792C127.971 17.9011 128.062 17.7079 128.549 17.7384L129.442 17.7791C131.562 17.8604 131.674 19.0911 131.806 19.8133H132.344V17.0671H124.531V17.5146C125.232 17.5146 125.82 18.2062 125.82 19.3047V29.1808C125.82 30.2793 125.232 30.9709 124.531 30.9709V31.4083H132.445L133.044 28.8146H132.445C131.745 31.1337 129.807 30.7675 128.752 30.737L128.742 30.7166Z" fill="white"/>
<path d="M11.2748 13.9446H7.19618V14.4023C8.27163 14.4023 8.37308 15.1651 8.02813 16.0093C6.65845 19.3556 3.19876 27.8179 2.79293 28.6825C2.28565 29.7606 1.57545 30.9506 0.5 30.9506V31.388H4.36552V30.9506C3.48284 30.9506 3.21905 29.7097 3.65532 28.6825C4.09159 27.6552 4.85252 25.8549 4.85252 25.8549H8.86008V28.9672C8.86008 30.8591 8.16002 30.9506 7.17589 30.9506V31.388H12.9387V30.9506C12.1169 30.9506 11.2646 30.8997 11.2646 28.9672C11.2646 27.9705 11.2646 13.9344 11.2646 13.9344L11.2748 13.9446ZM8.87022 25.2345H5.15689L8.87022 16.3755V25.2345Z" fill="white"/>
<path d="M96.4481 13.9445H89.407V14.4022C90.4114 14.4022 91.0912 15.0532 91.0912 16.3449V28.8044C91.0912 30.7878 90.3201 30.9505 89.407 30.9505V31.3879H95.1698V30.9505C94.1247 30.9505 93.516 30.7268 93.516 28.8146V23.6782H96.5902C97.5844 23.6782 98.3454 22.9866 98.3454 21.4101V16.1211C98.3454 14.8599 97.696 13.9445 96.438 13.9445H96.4481ZM95.9916 22.295C95.9916 22.7628 95.8191 23.0171 95.464 23.0171H93.5261V19.203V18.3282V14.5955H95.464C95.8191 14.5955 95.9916 14.8701 95.9916 15.4193V22.3051V22.295Z" fill="white"/>
<path d="M48.9357 27.0754L46.0644 17.0467H42.2801V17.4942C43.2338 17.4942 43.6193 17.8095 43.6193 19.325V29.1604C43.6193 30.2589 43.0715 30.9505 42.3004 30.9505V31.3879H45.6485V30.9505C44.8774 30.9505 44.3295 30.2589 44.3295 29.1604V18.8368L47.9718 31.3879H48.3269L52.1012 18.8877V29.1706C52.1012 30.2691 51.5533 30.9607 50.7822 30.9607V31.3981H55.6319V30.9607C54.8608 30.9607 54.2825 30.2691 54.2825 29.1706V19.2945C54.2825 18.196 54.8506 17.5044 55.6319 17.5044V17.0569H51.9794L48.9864 26.8516" fill="white"/>
<path d="M74.7871 30.198L72.3115 24.5531C73.0928 24.3802 74.087 24.0852 74.087 22.763C74.087 21.4407 74.0566 19.8337 74.0566 18.8369C74.0566 17.057 72.3623 17.057 70.6273 17.057H66.0821V17.5045C66.7821 17.5045 67.3604 18.1962 67.3604 19.2946V29.1707C67.3604 30.2692 66.5995 30.9608 66.0516 30.9608C66.0922 30.9608 66.0212 30.9608 66.0516 30.9608V31.3982H70.8201V30.9608C70.1201 30.9608 69.5113 30.2692 69.5113 29.1707V24.726H70.2215L72.6768 30.615C72.6768 30.615 72.7985 30.9608 73.0522 31.1948C73.2855 31.4185 73.7624 31.3982 73.7624 31.3982H75.5379V30.9608C75.3755 30.9608 75.1625 31.0727 74.7871 30.2082V30.198ZM72.0579 22.5494C72.0579 24.2683 70.1708 24.0344 69.5113 24.0547V18.6437C69.5113 18.0741 69.5316 17.7792 70.0592 17.7792C71.0636 17.7792 72.0579 17.6164 72.0579 18.959V22.5595V22.5494Z" fill="white"/>
<path d="M99.6441 17.4942C100.527 17.4942 100.933 18.1859 100.933 19.2843V29.1604C100.933 30.2589 100.527 30.9505 99.6441 30.9505V31.3879H104.362V30.9505C103.479 30.9505 103.083 30.2589 103.083 29.1604V19.2843C103.083 18.1859 103.489 17.4942 104.362 17.4942V17.0467H99.6441V17.4942Z" fill="white"/>
<path d="M80.4382 22.5494C78.8048 21.7255 78.1757 20.6576 78.1757 19.7218C78.1757 18.7861 78.3989 17.352 79.6976 17.352C81.6963 17.3723 82.3152 20.0981 82.5282 21.2882H82.9239V16.8231H82.4877C82.4674 17.3113 82.2847 17.4333 82.0413 17.4333C81.3006 17.413 81.0774 16.579 79.1497 16.6502C77.9018 16.701 76.3394 17.7588 76.3394 20.6169C76.3394 23.4749 76.8568 23.7597 78.5207 24.848C80.9455 26.4347 81.7166 27.0551 81.7166 28.2757C81.7166 29.4962 81.5644 30.8998 79.6367 30.8998C77.709 30.8998 77.3641 28.7334 77.1916 27.9095L76.8771 26.4347H76.4408V31.4592H76.8974C76.938 31.0625 77.0496 30.8388 77.2322 30.8388C77.9424 30.8388 78.6729 31.5711 79.9411 31.5609C83.1471 31.5202 83.7153 28.8961 83.7153 27.4213C83.7153 25.3973 82.721 23.6682 80.4281 22.529L80.4382 22.5494Z" fill="white"/>
<path d="M110.541 24.1461V24.5123C110.541 24.5123 111.19 24.5733 111.19 25.5701V28.9265C111.19 30.7166 110.551 30.859 109.424 30.859C108.298 30.859 107.842 30.4623 107.842 29.0893V19.203C107.842 18.2672 108.339 17.4637 109.536 17.4637C110.733 17.4637 112.275 18.7453 112.275 21.227H112.996V16.8128H112.458C112.458 18.5012 111.423 16.7619 109.597 16.7619C107.771 16.7619 107.182 17.0874 106.563 17.7689C105.924 18.4605 105.64 19.2945 105.64 20.2709V28.0213C105.64 28.9977 105.934 29.8317 106.563 30.503C107.192 31.2048 108.582 31.5608 109.475 31.5608C110.368 31.5608 110.754 31.3676 111.129 31.1947C111.504 31.0218 111.849 30.7573 112.164 30.4115C112.813 29.7097 113.138 28.8858 113.138 27.9298V25.5294C113.138 24.5733 113.787 24.4919 113.787 24.4919V24.1258H110.551L110.541 24.1461Z" fill="white"/>
<path d="M58.9597 26.3433L60.4207 19.8948L61.6585 26.3433H58.9597ZM64.6718 29.9642L61.9223 17.0062H59.2641V17.4639C60.1874 17.4639 60.0555 18.1861 59.8931 19.0811L57.4683 29.5675C57.1639 30.7575 56.7784 30.9609 56.4131 30.9609V31.3983H58.9293V30.9609C57.9857 30.9609 57.9756 30.2184 58.2495 29.12L58.8278 27.0349H61.8817L62.46 29.6183C62.7644 30.7677 62.2875 30.9711 61.7194 30.9711V31.4084H65.5443V30.9711C65.3109 30.9711 64.9254 30.8795 64.6921 29.9845L64.6718 29.9642Z" fill="white"/>
<path d="M133.318 17.057V19.8032H133.805C133.876 19.254 133.997 18.4504 134.515 18.125C135.032 17.8097 135.56 17.8198 136.412 17.8198V29.1606C136.412 30.259 135.854 30.9507 135.154 30.9507V31.388H139.851V30.9507C139.151 30.9507 138.563 30.259 138.563 29.1606V17.8198C139.425 17.8198 139.953 17.7995 140.46 18.125C140.978 18.4504 141.099 19.254 141.17 19.8032H141.668V17.057H133.318Z" fill="white"/>
<path d="M54.0898 42.2403C53.7448 43.3287 53.6839 43.5422 54.8811 43.5422C56.0783 43.5422 56.4131 43.4914 56.9914 42.5048C57.0929 42.4743 57.1842 42.4946 57.1943 42.5658C57.0929 42.9015 56.7479 43.6033 56.5653 43.8881C56.2102 43.8779 55.8247 43.8779 55.4391 43.8779C55.0536 43.8677 54.6782 43.8677 54.3434 43.8677H53.2274C52.8215 43.8677 52.5172 43.8779 52.2026 43.8982C52.1316 43.8474 52.1316 43.7152 52.1925 43.6541L52.4259 43.6236C52.8824 43.5422 52.994 43.4507 53.2882 42.4438L54.4144 38.7313C54.6985 37.7956 54.7289 37.643 54.1912 37.5515L53.9579 37.5006C53.897 37.4193 53.9173 37.287 54.0187 37.2565C54.3941 37.2667 54.7188 37.287 55.1145 37.287C55.5102 37.287 55.8247 37.2769 56.332 37.2565C56.403 37.3074 56.4233 37.46 56.332 37.5006L56.0377 37.5515C55.4899 37.6329 55.4391 37.7346 55.1449 38.7313L54.0898 42.2505V42.2403Z" fill="white"/>
<path d="M61.4149 40.3891C61.4149 41.1417 60.4612 41.6503 59.0611 42.047C58.9901 42.2199 58.9292 42.5352 58.9292 42.9319C58.9292 43.3285 59.1322 43.5014 59.3858 43.5014C59.6394 43.5014 59.9844 43.298 60.4004 42.9217C60.4917 42.9217 60.5526 43.003 60.5221 43.0946C59.9235 43.8472 59.3757 43.9998 58.98 43.9998C58.4017 43.9998 58.1886 43.4506 58.1886 42.9624C58.1886 42.4742 58.5741 41.1214 59.6293 40.2772C60.1366 39.8805 60.512 39.7992 60.7859 39.7992C61.1917 39.7992 61.4149 40.1348 61.4149 40.3993V40.3891ZM59.8728 40.5823C59.4974 40.9993 59.2742 41.457 59.1626 41.752C59.8018 41.5486 60.096 41.3655 60.4612 41.0197C60.7555 40.7247 60.8366 40.4399 60.8366 40.3484C60.8366 40.2569 60.7961 40.1145 60.6134 40.1145C60.4917 40.1043 60.238 40.1958 59.8829 40.5925L59.8728 40.5823Z" fill="white"/>
<path d="M66.9545 38.4974C67.1879 37.7346 67.1067 37.6431 66.6705 37.6125H66.3559C66.2849 37.5515 66.3154 37.4091 66.3559 37.3481C66.7009 37.2972 67.2589 37.226 67.9792 37.226C68.6996 37.226 69.075 37.2769 69.5417 37.4701C70.0185 37.6837 70.3635 38.0499 70.3635 38.7314C70.3635 39.7383 69.3794 40.2062 68.8619 40.2468C68.7097 40.257 68.7706 40.3282 68.8619 40.3486C69.4098 40.5316 69.8765 41.1012 69.8765 41.803C69.8765 42.5048 69.775 42.6777 69.3591 43.0846C68.9532 43.5016 68.243 43.8372 67.0357 43.8372C65.8284 43.8372 66.1632 43.8067 65.7573 43.8067C65.3515 43.8067 65.0471 43.8169 64.7631 43.8372C64.692 43.7864 64.692 43.6542 64.7428 43.5931L64.9355 43.5626C65.3921 43.4812 65.5037 43.3897 65.7979 42.3828L66.9545 38.4873V38.4974ZM66.427 42.6981C66.224 43.3592 66.498 43.5524 67.198 43.5524C67.8981 43.5524 69.0243 43.0337 69.0243 41.7013C69.0243 40.3689 68.3242 40.4401 67.5937 40.4401C66.8632 40.4401 67.0864 40.4503 66.9951 40.7757L66.4168 42.6879L66.427 42.6981ZM67.269 39.8705C67.198 40.1146 67.2082 40.1655 67.6241 40.1655C68.3242 40.1655 69.5518 39.8095 69.5518 38.5585C69.5518 37.3074 69.1257 37.5617 68.3343 37.5617C67.543 37.5617 67.9488 37.5515 67.8575 37.8872L67.2589 39.8807L67.269 39.8705Z" fill="white"/>
<path d="M72.5753 40.7351L72.1593 41.9963H72.1999C72.4839 41.447 72.9608 40.6435 73.2144 40.3079C73.4376 40.0027 73.671 39.7892 73.9145 39.7892C74.2594 39.7892 74.3 40.1248 74.3 40.2774C74.3 40.4299 74.2087 40.7249 74.0971 40.8775C73.9855 41.03 73.8333 41.03 73.7826 40.8266C73.742 40.5622 73.6811 40.4401 73.5797 40.4401C73.4782 40.4401 73.3869 40.5316 73.2347 40.7351C72.6361 41.5182 72.1085 42.7286 71.6013 43.8779C71.5607 43.9593 71.51 44 71.4389 44C71.3679 44 71.0534 43.9491 71.1244 43.7355C71.2462 43.3389 71.8549 41.5793 72.1187 40.5927C72.1491 40.491 72.139 40.3791 72.0477 40.3791C71.794 40.3791 71.5404 40.6537 71.3679 40.8978C71.2766 40.908 71.2056 40.8469 71.2157 40.7452C71.5302 40.2062 71.8853 39.7993 72.3622 39.7993C72.839 39.7892 72.6767 40.4604 72.5854 40.7351H72.5753Z" fill="white"/>
<path d="M77.9018 39.5552C78.0641 39.4738 78.3177 39.5654 78.3786 39.7078C78.2264 40.0739 77.3945 42.2811 77.08 43.1863C77.0191 43.3592 77.0597 43.4202 77.151 43.4202C77.3133 43.4202 77.5974 43.2473 78.1453 42.7591C78.2163 42.7591 78.2771 42.8099 78.2771 42.8811C77.8713 43.4304 77.1916 44 76.6538 44C76.1161 44 76.3698 43.8169 76.3698 43.7253C76.3698 43.6338 76.39 43.5728 76.4611 43.3388L76.7756 42.454H76.7451C76.0654 43.3083 75.0812 44 74.6145 44C74.1478 44 74.1884 43.7253 74.1884 43.4507C74.1884 43.1761 74.3913 42.4234 75.0305 41.5182C75.4871 40.8571 75.9132 40.4604 76.3089 40.2367C76.6843 40.0231 76.9379 39.9417 77.1713 39.9417C77.4046 39.9417 77.3539 39.9722 77.4046 40.0027C77.4452 40.0129 77.5568 40.1044 77.5974 40.2163L77.8815 39.5552H77.9018ZM76.2176 40.6944C75.5885 41.2639 75.0102 42.5658 75.0102 43.2676C75.0102 43.9694 75.0711 43.4507 75.1624 43.4507C75.2537 43.4507 75.5479 43.3287 76.0958 42.8099C76.8263 42.1081 77.2423 41.2436 77.3945 40.6639C77.3235 40.4808 77.1611 40.3079 76.9176 40.3079C76.6741 40.3079 76.5118 40.4096 76.2176 40.6944Z" fill="white"/>
<path d="M81.5441 40.3588C81.5441 40.5113 81.4528 40.6334 81.3615 40.6639C81.2904 40.6741 81.2397 40.6639 81.1788 40.5825C81.0165 40.4096 80.8948 40.257 80.5802 40.257C80.2657 40.257 80.1744 40.5011 80.1744 40.6537C80.1744 40.8063 80.215 41.0707 80.4991 41.5589C80.7324 41.976 80.8846 42.2201 80.8745 42.6676C80.8643 42.9422 80.7223 43.3084 80.3672 43.6135C80.1135 43.8474 79.7584 43.9695 79.3831 43.9695C79.0077 43.9695 78.7845 43.6745 78.7845 43.4508C78.7845 43.227 78.825 43.2372 78.9366 43.1253C79.0077 43.0439 79.1193 43.0439 79.2004 43.1253C79.3222 43.2778 79.6164 43.522 79.87 43.522C80.1237 43.522 80.3266 43.2778 80.3266 42.9524C80.3266 42.6269 80.2049 42.4743 79.9715 42.0777C79.7179 41.6606 79.6266 41.325 79.6266 41.1623C79.6266 40.7758 79.7889 40.491 80.2049 40.1248C80.4889 39.8807 80.8035 39.7993 80.9151 39.7993C81.2904 39.7892 81.5137 40.1045 81.5137 40.3486L81.5441 40.3588Z" fill="white"/>
<path d="M84.5472 40.3588C84.5472 40.5113 84.4458 40.6334 84.3646 40.6639C84.2936 40.6741 84.2429 40.6639 84.182 40.5825C84.0196 40.4096 83.8979 40.257 83.5935 40.257C83.2892 40.257 83.1877 40.5011 83.1877 40.6537C83.1877 40.8063 83.2283 41.0707 83.5124 41.5589C83.7457 41.976 83.8979 42.2201 83.8878 42.6676C83.8776 42.9422 83.7356 43.3084 83.3805 43.6135C83.1268 43.8474 82.7717 43.9695 82.3963 43.9695C82.0209 43.9695 81.7977 43.6745 81.7977 43.4508C81.7977 43.227 81.8383 43.2372 81.9499 43.1253C82.0209 43.0439 82.1325 43.0439 82.2137 43.1253C82.3355 43.2778 82.6297 43.522 82.8833 43.522C83.137 43.522 83.3399 43.2778 83.3399 42.9524C83.3399 42.6269 83.2181 42.4743 82.9848 42.0777C82.7311 41.6606 82.6398 41.325 82.6398 41.1623C82.6398 40.7758 82.8022 40.491 83.2181 40.1248C83.5022 39.8807 83.8167 39.7993 83.9283 39.7993C84.3037 39.7892 84.5269 40.1045 84.5269 40.3486L84.5472 40.3588Z" fill="white"/>
<path d="M86.2416 42.993C86.1502 43.2371 86.201 43.3287 86.3126 43.3287C86.4242 43.3287 86.8503 43.0032 87.3373 42.5048C88.22 41.6199 88.7171 40.4503 89.0316 39.8502C89.2345 39.7993 89.4578 39.9112 89.5085 40.0333C89.407 40.3079 88.778 41.9352 88.3823 43.1151C88.3417 43.2371 88.3214 43.3592 88.4229 43.3592C88.6055 43.3592 89.1229 42.8812 89.3766 42.576C89.4679 42.5659 89.5389 42.5862 89.5592 42.7184C89.3056 43.1965 88.3823 43.9796 87.8649 43.9796C87.3474 43.9796 87.5706 43.7965 87.6315 43.6236L88.291 41.8335H88.2809C87.5808 42.7184 86.3937 43.9898 85.8763 43.9898C85.3589 43.9898 85.4299 43.5728 85.5922 43.1456L86.4851 40.7249C86.5561 40.5418 86.5561 40.4299 86.4851 40.4299C86.3024 40.4299 85.8053 40.8775 85.5618 41.1216C85.4705 41.1317 85.3792 41.0605 85.3995 40.969C85.6531 40.5723 86.617 39.7892 87.0634 39.7892C87.5098 39.7892 87.4083 39.9112 87.3474 40.0841L86.2618 42.993H86.2416Z" fill="white"/>
<path d="M92.8261 40.3588C92.8261 40.5113 92.7348 40.6334 92.6435 40.6639C92.5725 40.6741 92.5218 40.6639 92.4609 40.5825C92.2986 40.4096 92.1768 40.257 91.8623 40.257C91.5478 40.257 91.4565 40.5011 91.4565 40.6537C91.4565 40.8063 91.497 41.0707 91.7811 41.5589C92.0145 41.976 92.1667 42.2201 92.1565 42.6676C92.1464 42.9422 92.0043 43.3084 91.6492 43.6135C91.3956 43.8474 91.0405 43.9695 90.6651 43.9695C90.2897 43.9695 90.0665 43.6745 90.0665 43.4508C90.0665 43.227 90.1071 43.2372 90.2187 43.1253C90.2897 43.0439 90.4013 43.0439 90.4825 43.1253C90.6042 43.2778 90.8984 43.522 91.1521 43.522C91.4057 43.522 91.6087 43.2778 91.6087 42.9524C91.6087 42.6269 91.4869 42.4743 91.2535 42.0777C90.9999 41.6606 90.9086 41.325 90.9086 41.1623C90.9086 40.7758 91.0709 40.491 91.4869 40.1248C91.771 39.8807 92.0855 39.7993 92.1971 39.7993C92.5725 39.7892 92.7957 40.1045 92.7957 40.3486L92.8261 40.3588Z" fill="white"/>
<g clip-path="url(#clip1_4457_218610)">
<path d="M19.0768 0.193207V1.48493H15.5664V4.17009H18.6406V5.46182H15.5664V9.54041H14.0648V0.193207H19.0768Z" fill="white"/>
<path d="M22.3945 9.60148C22.0901 9.53028 21.8162 9.40823 21.5828 9.25566C21.3495 9.1031 21.1465 8.90985 20.9842 8.67591C20.8219 8.44198 20.69 8.15719 20.5885 7.84189C20.4871 7.51641 20.4059 7.15025 20.3552 6.73324C20.3045 6.31623 20.274 5.85853 20.274 5.34998V4.38373C20.274 3.6209 20.3247 2.95978 20.4465 2.41054C20.5581 1.8613 20.7407 1.40361 20.9842 1.04762C21.2379 0.691632 21.5625 0.427184 21.9684 0.264448C22.3742 0.0813685 22.8612 0 23.4293 0C23.9975 0 24.1598 0.0406842 24.4642 0.111882C24.7686 0.183079 25.0425 0.305132 25.2657 0.457698C25.4991 0.610264 25.702 0.813685 25.8643 1.04762C26.0368 1.28155 26.1687 1.56634 26.2701 1.88165C26.3716 2.20712 26.4426 2.57328 26.4933 2.98012C26.5441 3.39713 26.5644 3.85483 26.5644 4.37356V5.33981C26.5644 6.10264 26.5035 6.76375 26.3919 7.31299C26.2803 7.86223 26.0977 8.30976 25.8542 8.66574C25.6005 9.02173 25.286 9.28618 24.8802 9.44891C24.4743 9.61165 23.9874 9.70319 23.409 9.70319C23.0235 9.70319 22.6786 9.66251 22.364 9.59131L22.3945 9.60148ZM23.9772 8.4013C24.1395 8.35044 24.2714 8.26907 24.3932 8.17753C24.5048 8.07582 24.6062 7.95377 24.6874 7.79103C24.7686 7.62829 24.8294 7.45539 24.8802 7.25197C24.9309 7.03837 24.9613 6.81461 24.9816 6.55016C25.0019 6.28571 25.0121 6.00093 25.0121 5.67545V4.08877C25.0121 3.77346 25.0019 3.4785 24.9816 3.21405C24.9613 2.94961 24.9208 2.71567 24.8802 2.50208C24.8396 2.29866 24.7686 2.11558 24.6874 1.96301C24.6062 1.81045 24.5149 1.67822 24.3932 1.57651C24.2714 1.4748 24.1395 1.39344 23.9874 1.35275C23.8352 1.31207 23.6525 1.27138 23.4395 1.27138C23.2264 1.27138 23.0539 1.3019 22.9018 1.35275C22.7496 1.40361 22.6075 1.48497 22.4858 1.57651C22.364 1.67822 22.2727 1.80028 22.1916 1.96301C22.1104 2.11558 22.0495 2.29866 21.9988 2.50208C21.9582 2.7055 21.9176 2.94961 21.8973 3.21405C21.877 3.4785 21.8669 3.77346 21.8669 4.08877V5.67545C21.8669 6.00093 21.877 6.28571 21.8973 6.55016C21.9176 6.81461 21.9481 7.04854 21.9988 7.25197C22.0495 7.46556 22.1104 7.63847 22.1916 7.79103C22.2727 7.9436 22.364 8.07582 22.4858 8.17753C22.6075 8.27924 22.7394 8.36061 22.9018 8.4013C23.0641 8.44198 23.2366 8.48266 23.4395 8.48266C23.6424 8.48266 23.825 8.45215 23.9874 8.4013H23.9772Z" fill="white"/>
<path d="M30.1255 9.53024C29.7602 9.40819 29.4559 9.21494 29.2124 8.95049C28.9689 8.68604 28.7964 8.37074 28.6746 7.97407C28.5529 7.5774 28.5022 7.1197 28.5022 6.58063V0.193207H30.0037V6.53995C30.0037 6.84508 30.0342 7.1197 30.0849 7.3638C30.1356 7.59774 30.2168 7.80116 30.3284 7.9639C30.44 8.12663 30.5922 8.24869 30.7748 8.33005C30.9574 8.41142 31.1806 8.45211 31.4444 8.45211C31.7082 8.45211 31.9416 8.41142 32.1242 8.33005C32.3068 8.24869 32.459 8.12663 32.5706 7.9639C32.6822 7.80116 32.7634 7.60791 32.8141 7.3638C32.8648 7.12987 32.8851 6.85525 32.8851 6.53995V0.193207H34.3867V6.58063C34.3867 7.1197 34.3258 7.58757 34.2142 7.97407C34.1026 8.37074 33.92 8.69621 33.6765 8.95049C33.433 9.21494 33.1286 9.39801 32.7634 9.53024C32.3981 9.66246 31.9517 9.71332 31.4444 9.71332C30.9371 9.71332 30.4907 9.65229 30.1153 9.53024H30.1255Z" fill="white"/>
<path d="M36.5377 0.193207H38.5059L41.1945 7.56722H41.225L41.1337 4.95326V0.193207H42.5439V9.54041H40.5858L37.887 2.18673H37.8769L37.9581 4.79053V9.54041H36.5478V0.193207H36.5377Z" fill="white"/>
<path d="M44.7353 0.193207H47.1195C47.5355 0.193207 47.921 0.233891 48.2558 0.305088C48.5906 0.376286 48.8849 0.498339 49.1487 0.650904C49.4124 0.80347 49.6255 1.00689 49.8081 1.251C50.0009 1.4951 50.1531 1.76972 50.2647 2.10537C50.3864 2.43084 50.4676 2.80717 50.5285 3.23435C50.5893 3.66154 50.6096 4.12941 50.6096 4.6583V5.116C50.6096 5.63472 50.5792 6.10259 50.5285 6.52978C50.4676 6.95696 50.3864 7.33329 50.2647 7.65876C50.1429 7.98424 49.9907 8.26903 49.8081 8.51313C49.6154 8.75724 49.4023 8.95049 49.1487 9.11323C48.895 9.27596 48.5906 9.38784 48.2558 9.45904C47.921 9.53024 47.5456 9.57092 47.1195 9.57092H44.7353V0.193207ZM47.0383 8.2792C47.292 8.2792 47.505 8.25886 47.6978 8.21817C47.8906 8.17749 48.0631 8.10629 48.2152 8.00458C48.3674 7.90287 48.4892 7.77065 48.6008 7.61808C48.7124 7.46551 48.7936 7.26209 48.8544 7.03833C48.9153 6.81457 48.966 6.55012 48.9965 6.24499C49.0269 5.93985 49.0472 5.60421 49.0472 5.20754V4.54642C49.0472 4.15992 49.037 3.8141 48.9965 3.50897C48.966 3.20384 48.9153 2.94956 48.8544 2.71563C48.7936 2.49187 48.7022 2.29862 48.6008 2.13588C48.4993 1.97314 48.3674 1.85109 48.2152 1.74938C48.0631 1.64767 47.8906 1.5663 47.6978 1.52562C47.505 1.48493 47.2818 1.46459 47.0383 1.46459H46.247V8.28937H47.0383V8.2792Z" fill="white"/>
<path d="M54.0897 0.193207H55.9768L58.4828 9.53024H56.9711L56.3218 6.95696H53.7346L53.0853 9.53024H51.5736L54.0897 0.193207ZM56.0275 5.69575L55.0333 1.74938H55.013L54.0288 5.69575H56.0174H56.0275Z" fill="white"/>
<path d="M60.7859 1.48493H58.5031V0.193207H64.5601V1.48493H62.2774V9.54041H60.7859V1.48493Z" fill="white"/>
<path d="M66.0617 0.193207H67.5633V9.54041H66.0617V0.193207Z" fill="white"/>
<path d="M71.6621 9.60148C71.3577 9.53028 71.0838 9.40823 70.8505 9.25566C70.6171 9.1031 70.4142 8.90985 70.2519 8.67591C70.0895 8.44198 69.9576 8.15719 69.8562 7.84189C69.7547 7.51641 69.6735 7.15025 69.6228 6.73324C69.5721 6.31623 69.5417 5.85853 69.5417 5.34998V4.38373C69.5417 3.6209 69.6025 2.95978 69.7141 2.41054C69.8257 1.8613 70.0084 1.40361 70.2519 1.04762C70.5055 0.691632 70.8302 0.427184 71.236 0.264448C71.6317 0.0813685 72.1288 0 72.7071 0C73.2854 0 73.4376 0.0406842 73.742 0.111882C74.0464 0.183079 74.3203 0.305132 74.5536 0.457698C74.787 0.610264 74.9899 0.813685 75.1522 1.04762C75.3247 1.28155 75.4566 1.56634 75.5581 1.88165C75.6595 2.20712 75.7305 2.57328 75.7813 2.98012C75.832 3.39713 75.8523 3.85483 75.8523 4.37356V5.33981C75.8523 6.10264 75.7914 6.76375 75.6798 7.31299C75.5682 7.86223 75.3856 8.30976 75.1421 8.66574C74.8885 9.02173 74.5739 9.28618 74.1681 9.44891C73.7623 9.61165 73.2753 9.70319 72.697 9.70319C72.3013 9.70319 71.9563 9.66251 71.652 9.59131L71.6621 9.60148ZM73.2448 8.4013C73.397 8.35044 73.5391 8.26907 73.6507 8.17753C73.7623 8.07582 73.8637 7.95377 73.9449 7.79103C74.0261 7.63847 74.0869 7.45539 74.1377 7.25197C74.1884 7.03837 74.2188 6.81461 74.2391 6.55016C74.2594 6.28571 74.2696 6.00093 74.2696 5.67545V4.08877C74.2696 3.77346 74.2594 3.4785 74.2391 3.21405C74.2188 2.94961 74.1783 2.71567 74.1377 2.50208C74.0869 2.29866 74.0261 2.11558 73.9449 1.96301C73.8637 1.81045 73.7724 1.67822 73.6507 1.57651C73.5391 1.4748 73.397 1.39344 73.2448 1.35275C73.0927 1.31207 72.91 1.27138 72.697 1.27138C72.4839 1.27138 72.3114 1.3019 72.1593 1.35275C72.0071 1.40361 71.865 1.48497 71.7433 1.57651C71.6215 1.67822 71.5302 1.80028 71.4491 1.96301C71.3679 2.11558 71.307 2.29866 71.2563 2.50208C71.2056 2.7055 71.1751 2.94961 71.1548 3.21405C71.1345 3.4785 71.1244 3.77346 71.1244 4.08877V5.67545C71.1244 6.00093 71.1345 6.28571 71.1548 6.55016C71.1751 6.81461 71.2157 7.04854 71.2563 7.25197C71.307 7.46556 71.3679 7.63847 71.4491 7.79103C71.5302 7.9436 71.6215 8.07582 71.7433 8.17753C71.8549 8.27924 71.9969 8.36061 72.1593 8.4013C72.3114 8.45215 72.4941 8.48266 72.697 8.48266C72.8999 8.48266 73.0825 8.45215 73.2448 8.4013Z" fill="white"/>
<path d="M77.8307 0.193207H79.799L82.4876 7.56722H82.5181L82.4268 4.95326V0.193207H83.837V9.54041H81.8789L79.1903 2.18673H79.1801L79.2613 4.79053V9.54041H77.851V0.193207H77.8307Z" fill="white"/>
<path d="M86.8706 6.64175V6.87568C86.8706 8.01484 87.3779 8.58442 88.3925 8.58442C89.4071 8.58442 88.8288 8.54373 89.0012 8.46237C89.1737 8.381 89.3259 8.27929 89.4375 8.15723C89.5491 8.03518 89.6404 7.88262 89.7013 7.73005C89.7622 7.56731 89.7926 7.40458 89.7926 7.23167C89.7926 6.74346 89.6708 6.3773 89.4375 6.12302C89.2041 5.87892 88.8795 5.68567 88.4635 5.56361L87.4489 5.20763C87.1141 5.0754 86.8199 4.93301 86.5764 4.78044C86.3329 4.62788 86.13 4.4448 85.9677 4.24138C85.8053 4.03795 85.6937 3.80402 85.6126 3.53957C85.5314 3.27512 85.501 2.98016 85.501 2.65469C85.501 2.32922 85.572 1.85118 85.714 1.5257C85.8561 1.20023 86.0488 0.92561 86.3025 0.701847C86.5561 0.478083 86.8605 0.305175 87.2156 0.193294C87.5707 0.071241 87.9664 0.0203857 88.4026 0.0203857C88.8389 0.0203857 89.4781 0.101754 89.823 0.264491C90.168 0.427228 90.4318 0.64082 90.6144 0.884926C90.797 1.12903 90.9086 1.40365 90.9594 1.67827C91.0101 1.96306 91.0405 2.22751 91.0405 2.47161V2.6852H89.5491V2.49195C89.5491 2.06477 89.4476 1.72912 89.2447 1.49519C89.0418 1.26126 88.707 1.1392 88.2403 1.1392C87.7736 1.1392 87.9258 1.15954 87.7736 1.2104C87.6214 1.26125 87.4895 1.33245 87.3678 1.43416C87.246 1.53587 87.1547 1.67827 87.0837 1.85118C87.0127 2.02408 86.9822 2.23768 86.9822 2.48178C86.9822 2.87845 87.0938 3.20393 87.3069 3.42769C87.52 3.65145 87.8852 3.86505 88.3722 4.0583L89.3766 4.42445C90.0361 4.65839 90.5129 4.97369 90.8173 5.35002C91.1217 5.73652 91.2637 6.24507 91.2637 6.89602C91.2637 7.54697 91.1927 7.82159 91.0507 8.16741C90.9086 8.51322 90.6956 8.80818 90.4318 9.04212C90.168 9.27605 89.8433 9.43879 89.4578 9.5405C89.0824 9.64221 88.6563 9.69306 88.1896 9.69306C87.7229 9.69306 87.1446 9.60152 86.7692 9.42862C86.4039 9.25571 86.1097 9.03194 85.9068 8.75733C85.7039 8.48271 85.5517 8.17758 85.4807 7.84193C85.4096 7.50629 85.3589 7.17064 85.3589 6.84517V6.6214H86.8503L86.8706 6.64175Z" fill="white"/>
</g>
</g>
<defs>
<clipPath id="clip0_4457_218610">
<rect width="141.168" height="44" fill="white" transform="translate(0.5)"/>
</clipPath>
<clipPath id="clip1_4457_218610">
<rect width="77.1988" height="9.7134" fill="white" transform="translate(14.0648)"/>
</clipPath>
</defs>
</svg>
