<svg width="89" height="56" viewBox="0 0 89 56" fill="none" xmlns="http://www.w3.org/2000/svg">
<path d="M7.86839 14.3502H11.6246L15.9729 23.9246L20.287 14.3502H24.0089V26.6913H21.5421L21.6472 16.4926H21.613L17.0337 26.6913H14.8138L10.2689 16.4926H10.2346L10.3398 26.6913H7.86839V14.3502Z" fill="white"/>
<path d="M27.5891 14.3502H30.1953V21.315C30.1953 21.7435 30.2159 22.1788 30.257 22.6301C30.2982 23.0813 30.4285 23.4847 30.648 23.8493C30.8675 24.214 31.2104 24.5103 31.6722 24.7473C32.1363 24.9843 32.7947 25.1028 33.652 25.1028C34.4979 25.1028 35.1541 24.9843 35.625 24.7473C36.0937 24.5103 36.4412 24.2072 36.6675 23.8402C36.8938 23.471 37.0264 23.0654 37.0676 22.6209C37.1087 22.1765 37.1293 21.7435 37.1293 21.315V14.3502H39.7356V21.3834C39.7356 21.7184 39.7241 22.0922 39.7013 22.507C39.6784 22.9218 39.6076 23.3388 39.4932 23.7605C39.3766 24.1821 39.196 24.5878 38.9468 24.9798C38.6976 25.3718 38.3501 25.7205 37.9043 26.0258C37.4585 26.3312 36.887 26.5774 36.192 26.7597C35.497 26.9443 34.6511 27.0378 33.6543 27.0378C32.6575 27.0378 31.8162 26.9443 31.1258 26.7597C30.4354 26.5751 29.8661 26.329 29.4134 26.0258C28.9608 25.7205 28.6133 25.3718 28.3709 24.9798C28.1286 24.5878 27.948 24.1821 27.8314 23.7605C27.7148 23.3388 27.6462 22.9263 27.6233 22.5161C27.6005 22.1059 27.5891 21.7298 27.5891 21.3834V14.3502Z" fill="white"/>
<path d="M42.671 17.8258C42.671 17.1353 42.8128 16.5473 43.0963 16.0641C43.3798 15.5787 43.7707 15.1867 44.2691 14.879C44.7675 14.5736 45.3482 14.3502 46.0157 14.2135C46.681 14.0745 47.392 14.0061 48.1442 14.0061C48.4574 14.0061 48.8186 14.0198 49.2301 14.0494C49.6416 14.079 50.0623 14.1383 50.4898 14.2317C50.9173 14.3252 51.3403 14.4574 51.7586 14.6306C52.1747 14.8038 52.5588 15.034 52.9063 15.3211C53.2538 15.6106 53.5442 15.9661 53.7751 16.3923C54.006 16.8207 54.1523 17.3312 54.2094 17.9306H51.3951C51.3723 17.6891 51.2991 17.4498 51.178 17.215C51.0568 16.978 50.867 16.7638 50.6133 16.5769C50.3595 16.3877 50.0394 16.2327 49.6576 16.1188C49.2758 16.0026 48.8118 15.9456 48.2676 15.9456C47.3989 15.9456 46.7016 16.0823 46.1735 16.3535C45.6454 16.6247 45.3825 17.0532 45.3825 17.6412C45.3825 18.0104 45.5151 18.2953 45.7825 18.4958C46.0477 18.6987 46.3998 18.8559 46.8342 18.9722C47.2686 19.0884 47.7601 19.1773 48.3111 19.2411C48.862 19.3049 49.4267 19.3778 50.0051 19.4576C50.5835 19.5397 51.1482 19.6445 51.6992 19.779C52.2502 19.9111 52.7417 20.1117 53.1761 20.3738C53.6105 20.6404 53.9602 20.9846 54.2277 21.4108C54.4952 21.8392 54.6278 22.3794 54.6278 23.0357C54.6278 23.8311 54.4426 24.4875 54.0723 25.0048C53.7019 25.5222 53.2241 25.9324 52.6388 26.2332C52.0536 26.5341 51.4111 26.7438 50.7093 26.8623C50.0074 26.9831 49.3284 27.0446 48.6677 27.0446C47.5566 27.0446 46.6033 26.9398 45.81 26.7324C45.0167 26.525 44.3674 26.231 43.8644 25.8504C43.3615 25.4698 42.9888 25.0117 42.7533 24.4761C42.5156 23.9382 42.3921 23.3502 42.3807 22.7053H45.195C45.2293 23.5348 45.5608 24.1433 46.1849 24.5285C46.8113 24.9159 47.6664 25.1074 48.7569 25.1074C49.1501 25.1074 49.5319 25.0755 49.9045 25.0117C50.2749 24.9479 50.6018 24.8453 50.8853 24.6994C51.1688 24.5559 51.3951 24.3667 51.562 24.1388C51.7289 23.9086 51.8135 23.626 51.8135 23.2933C51.8135 22.9127 51.6832 22.6118 51.4226 22.3862C51.162 22.1606 50.8167 21.9851 50.3892 21.8575C49.9594 21.7298 49.4702 21.6295 48.9215 21.5543C48.3705 21.4791 47.8127 21.3994 47.2457 21.3128C46.6787 21.2262 46.1186 21.1145 45.5699 20.9755C45.019 20.8364 44.5297 20.6404 44.1022 20.3897C43.6724 20.1368 43.3295 19.8063 43.0688 19.3961C42.8014 18.9813 42.671 18.4594 42.671 17.8258Z" fill="white"/>
<path d="M57.3712 14.3502H68.1438V16.2852H59.9775V19.3961H67.8146V21.331H59.9775V24.7541H68.2832V26.6891H57.3712V14.3502Z" fill="white"/>
<path d="M71.4084 14.3502H82.181V16.2852H74.0147V19.3961H81.8518V21.331H74.0147V24.7541H82.3204V26.6891H71.4084V14.3502Z" fill="white"/>
<path d="M6.02572 30.0438H9.11893L14.6447 42.3849H11.7435L10.4404 39.3264H4.60142L3.31659 42.3849H0.5L6.02572 30.0438ZM9.65619 37.3892L7.53689 32.1861L5.3833 37.3892H9.65619Z" fill="white"/>
<path d="M19.3519 31.9787H14.6949V30.0438H26.6151V31.9787H21.9582V42.3849H19.3519V31.9787Z" fill="white"/>
<path d="M29.0476 30.0438H39.8202V31.9787H31.6539V35.0897H39.491V37.0246H31.6539V40.4477H39.9596V42.3826H29.0476V30.0438Z" fill="white"/>
<path d="M43.0871 30.0438H45.6934V40.3474H53.2332V42.3872H43.0871V30.0438Z" fill="white"/>
<path d="M55.8395 30.0438H58.4458V42.3849H55.8395V30.0438Z" fill="white"/>
<path d="M62.1471 30.0438H72.9196V31.9787H64.7533V35.0897H72.5904V37.0246H64.7533V40.4477H73.0591V42.3826H62.1471V30.0438Z" fill="white"/>
<path d="M76.1843 30.0438H84.0374C84.8238 30.0438 85.4891 30.1282 86.0263 30.2945C86.5659 30.4632 86.9957 30.6956 87.3203 30.9942C87.645 31.2928 87.8759 31.6483 88.0153 32.0562C88.1548 32.4665 88.2234 32.9109 88.2234 33.3963C88.2234 34.2031 88.029 34.8549 87.6404 35.3495C87.2517 35.8463 86.7625 36.1836 86.1727 36.3682V36.4024C86.5316 36.4844 86.8311 36.6189 87.0666 36.8103C87.3043 37.0018 87.4895 37.2411 87.6221 37.526C87.7547 37.8154 87.8484 38.1436 87.901 38.5196C87.9536 38.8957 87.9787 39.2991 87.9787 39.7389C87.9787 39.8894 87.981 40.0808 87.9879 40.3087C87.9925 40.5389 88.013 40.7782 88.0496 41.0243C88.0862 41.2727 88.1365 41.5189 88.2051 41.7582C88.2737 41.9998 88.372 42.2094 88.5 42.3804H85.6857C85.592 42.2071 85.5165 41.9656 85.4594 41.6556C85.4022 41.3457 85.3725 40.9651 85.3725 40.5138C85.3725 40.0762 85.3496 39.6728 85.3039 39.3036C85.2582 38.9344 85.1599 38.6199 85.009 38.3533C84.8581 38.0866 84.6409 37.8792 84.3574 37.7311C84.0739 37.5807 83.6944 37.5055 83.2189 37.5055H78.7883V42.3804H76.182L76.1843 30.0438ZM83.2921 35.5751C84.0213 35.5751 84.5746 35.4452 84.9518 35.1854C85.329 34.9256 85.5165 34.4515 85.5165 33.7587C85.5165 33.1023 85.3199 32.642 84.9267 32.3753C84.5335 32.1087 83.9893 31.9765 83.2943 31.9765H78.7951V35.5728L83.2921 35.5751Z" fill="white"/>
<path d="M18.9335 49.0238C19.2902 49.0238 19.5988 49.3679 19.5988 49.9058V54.1243C19.5988 55.6741 18.9221 55.5465 18.2065 55.5465C17.4932 55.5465 17.4087 54.8833 17.4087 54.1152V49.9058C17.4087 49.3657 17.7173 49.0238 18.0739 49.0238V48.805H15.6437V49.0238C16.0004 49.0238 16.3227 49.3679 16.3227 49.9058V54.4662C16.3227 55.3459 16.8302 56 18.0168 56C19.2033 56 19.9326 55.9407 19.9326 54.0947V49.9081C19.9326 49.3679 20.2412 49.0261 20.5979 49.0261V48.8073H18.9381V49.0261H18.9335V49.0238Z" fill="white"/>
<path d="M70.3659 49.0238C70.7226 49.0238 71.0061 49.3679 71.0061 49.9058V54.1243C71.0061 55.6741 70.3294 55.5465 69.6138 55.5465C68.9005 55.5465 68.8182 54.8833 68.8182 54.1152V49.9058C68.8182 49.3657 69.1131 49.0238 69.4698 49.0238V48.805H67.0761V49.0238C67.4328 49.0238 67.7277 49.3679 67.7277 49.9058V54.4662C67.7277 55.3459 68.2352 56 69.4217 56C70.6083 56 71.3376 55.9407 71.3376 54.0947V49.9081C71.3376 49.3679 71.6211 49.0261 71.9754 49.0261V48.8073H70.3659V49.0238Z" fill="white"/>
<path d="M23.6614 48.805H20.9362V49.0238C21.2929 49.0238 21.5878 49.3679 21.5878 49.9058V54.7716C21.5878 55.314 21.2929 55.6513 20.9362 55.6513V55.8678H23.9906C24.4844 55.8678 25.0514 55.6034 25.3989 54.6599C25.7395 53.6799 25.7807 52.8823 25.7327 51.6538C25.6687 50.4345 25.4583 49.6939 25.152 49.3246C24.8479 48.9532 24.361 48.805 23.6614 48.805ZM23.8283 55.4986C23.7323 55.5237 23.3116 55.567 22.971 55.5373C22.6898 55.5123 22.676 55.4758 22.676 54.8947V49.842C22.676 49.2608 22.8315 49.1195 23.3345 49.1195C23.954 49.1195 24.2261 49.2882 24.4341 49.8032C24.8479 50.8038 24.7816 52.6612 24.6673 54.0765C24.6673 54.0765 24.5096 55.3231 23.8283 55.4986Z" fill="white"/>
<path d="M28.1743 55.5351C27.8245 55.494 27.7834 55.3482 27.7834 54.8195V52.4903C28.5698 52.5518 28.643 52.5495 28.8419 53.5249H29.0545V51.0955H28.8419C28.6704 52.0162 28.5675 52.0663 27.7834 52.1279V49.7531C27.7834 49.2221 27.8314 49.1286 28.076 49.1423L28.531 49.1651C29.6055 49.2061 29.6603 49.8124 29.7289 50.1656H29.9987V48.8119H26.0322V49.0306C26.3888 49.0306 26.6974 49.3725 26.6974 49.9126V54.7784C26.6974 55.3208 26.3888 55.6581 26.0322 55.6581V55.8747H30.0513L30.3531 54.5938H30.049C29.6924 55.7288 28.7116 55.551 28.1743 55.5351Z" fill="white"/>
<path d="M74.4468 55.5351C74.0993 55.494 74.0581 55.3482 74.0581 54.8195V52.4903C74.8446 52.5518 74.9177 52.5495 75.1189 53.5249H75.3315V51.0955H75.1189C74.9475 52.0162 74.8446 52.0663 74.0581 52.1279V49.7531C74.0581 49.2221 74.1061 49.1286 74.3508 49.1423L74.8057 49.1651C75.8802 49.2061 75.9351 49.8124 76.0037 50.1656H76.2735V48.8119H72.3161V49.0306C72.6727 49.0306 72.9676 49.3725 72.9676 49.9126V54.7784C72.9676 55.3208 72.6727 55.6581 72.3161 55.6581V55.8747H76.3215L76.6232 54.5938H76.3192C75.9648 55.7288 74.9863 55.551 74.4468 55.5351Z" fill="white"/>
<path d="M14.951 47.2758H12.8843V47.4991C13.4307 47.4991 13.4787 47.8774 13.3072 48.29C12.6122 49.94 10.861 54.1084 10.6553 54.5323C10.3992 55.0656 10.0403 55.649 9.49615 55.649V55.8655H11.4531V55.649C11.0073 55.649 10.8747 55.0382 11.0942 54.5346C11.3137 54.0309 11.7023 53.1443 11.7023 53.1443H13.7347V54.6759C13.7347 55.6057 13.3827 55.649 12.8843 55.649V55.8655H15.8038V55.649C15.3877 55.649 14.9533 55.6217 14.9533 54.6759C14.9556 54.1859 14.951 47.2758 14.951 47.2758ZM13.737 52.8321H11.8555L13.737 48.4723V52.8321Z" fill="white"/>
<path d="M58.0937 47.2735H54.5295V47.5014C55.0393 47.5014 55.3845 47.825 55.3845 48.4586V54.5938C55.3845 55.5715 54.9959 55.6513 54.5341 55.6513V55.8678H57.4535V55.6513C56.9254 55.6513 56.6168 55.5419 56.6168 54.5984V52.0663H58.1737C58.6744 52.0663 59.0653 51.7245 59.0653 50.9473V48.3447C59.0607 47.7247 58.7338 47.2735 58.0937 47.2735ZM57.8628 51.3872C57.8628 51.6197 57.7736 51.7427 57.593 51.7427H56.6122L56.6145 49.8671V49.4318L56.6122 47.5926H57.593C57.7736 47.5926 57.8628 47.727 57.8628 47.9982V51.3872Z" fill="white"/>
<path d="M34.0247 53.7415L32.5707 48.8027H30.6525V49.0215C31.1349 49.0215 31.3293 49.1765 31.3293 49.924V54.7693C31.3293 55.3117 31.0526 55.649 30.6617 55.649V55.8655H32.3558V55.649C31.9625 55.649 31.6882 55.3094 31.6882 54.7693V49.687L33.5331 55.8655H33.7138L35.625 49.7098V54.7693C35.625 55.3117 35.3484 55.649 34.9574 55.649V55.8655H37.4151V55.649C37.0242 55.649 36.7338 55.3094 36.7338 54.7693V49.9035C36.7338 49.3634 37.0242 49.0215 37.4151 49.0215V48.8027H35.5656L34.0521 53.6275" fill="white"/>
<path d="M47.12 55.2775L45.8671 52.4971C46.2649 52.4105 46.7679 52.2646 46.7679 51.6151C46.7679 50.9131 46.7496 50.1702 46.7496 49.6802C46.7496 48.8027 45.8923 48.8027 45.0144 48.8027H42.7122V49.0215C43.0688 49.0215 43.3615 49.3657 43.3615 49.9035V54.7693C43.3615 55.3094 42.9774 55.649 42.7008 55.649C42.687 55.649 42.7213 55.649 42.7008 55.649V55.8655H45.115V55.649C44.7606 55.649 44.452 55.3094 44.452 54.7693V52.5814H44.8109L46.0523 55.4804C46.0523 55.4804 46.1163 55.6513 46.2421 55.7675C46.3587 55.8769 46.6033 55.8655 46.6033 55.8655H47.5018V55.649C47.4149 55.6513 47.3097 55.7037 47.12 55.2775ZM45.7368 51.5103C45.7368 52.3558 44.7812 52.2396 44.4474 52.2487V49.5822C44.4474 49.2996 44.4588 49.156 44.7263 49.156C45.2361 49.156 45.7368 49.0762 45.7368 49.7372V51.5103Z" fill="white"/>
<path d="M59.7123 49.0238C60.1581 49.0238 60.3639 49.3679 60.3639 49.9058V54.7716C60.3639 55.314 60.1558 55.6513 59.7123 55.6513V55.8678H62.1014V55.6513C61.6556 55.6513 61.4521 55.3117 61.4521 54.7716V49.9058C61.4521 49.3657 61.6556 49.0238 62.1014 49.0238V48.805H59.7123V49.0238Z" fill="white"/>
<path d="M49.9823 51.5103C49.1524 51.1046 48.8369 50.5758 48.8369 50.12C48.8369 49.8693 48.9489 48.9509 49.6096 48.9509C50.6201 48.96 50.9333 50.3046 51.0431 50.8904H51.242V48.6933H51.0202C51.0111 48.9326 50.915 48.9942 50.7962 48.9942C50.4212 48.9851 50.3092 48.5703 49.333 48.609C48.702 48.6341 47.911 49.1537 47.911 50.5644C47.911 51.2071 48.1739 52.1119 49.0175 52.6475C50.2452 53.4269 50.6338 53.7369 50.6338 54.3363C50.6338 54.587 50.5584 55.6308 49.5776 55.6308C48.8849 55.6308 48.4277 54.5619 48.3408 54.1562L48.183 53.4315H47.9636V55.9066H48.1922C48.2151 55.7083 48.2699 55.6012 48.3614 55.6012C48.7226 55.6012 49.093 55.9635 49.7331 55.9567C51.3586 55.9362 51.6466 54.644 51.6466 53.9192C51.6466 52.9233 51.1391 52.0732 49.9823 51.5103Z" fill="white"/>
<path d="M65.2289 52.2988V52.4811C65.2289 52.4811 65.5581 52.5108 65.5581 53.003V54.6576C65.5581 55.5396 65.2357 55.6103 64.6619 55.6103C64.0881 55.6103 63.8617 55.412 63.8617 54.7374V49.8693C63.8617 49.409 64.1155 49.017 64.7191 49.017C65.3912 49.017 66.1068 49.6483 66.1068 50.8698H66.4726V48.6933H66.1982C66.1982 49.5252 65.6747 48.6683 64.7488 48.6683C64.0789 48.6683 63.5257 48.8324 63.2125 49.1651C62.8901 49.5047 62.7438 49.9149 62.7438 50.3981V54.2178C62.7438 54.7009 62.8901 55.1066 63.2125 55.4394C63.5302 55.7858 64.2344 55.959 64.687 55.959C64.9522 55.959 65.3318 55.8655 65.5238 55.7789C65.7158 55.6923 65.8896 55.5624 66.0473 55.3938C66.3743 55.0474 66.5389 54.6417 66.5389 54.1745V52.9916C66.5389 52.5199 66.8704 52.4811 66.8704 52.4811V52.2988H65.2289Z" fill="white"/>
<path d="M39.1023 53.3814L39.8407 50.2066L40.4694 53.3814H39.1023ZM41.9989 55.1636L40.6043 48.7799H39.2578V49.0033C39.7264 49.0033 39.6601 49.3588 39.5755 49.7987L38.3456 54.9608C38.1947 55.5465 37.9958 55.6467 37.8083 55.6467V55.8633H39.0863V55.6467C38.6108 55.6467 38.6039 55.2821 38.7411 54.7374L39.0314 53.7095H40.5769L40.8718 54.9813C41.0227 55.5465 40.7827 55.6467 40.4946 55.6467V55.8633H42.431V55.6467H42.4333C42.3121 55.6467 42.1155 55.6034 41.9989 55.1636Z" fill="white"/>
<path d="M76.7673 48.805V50.1588H77.0165C77.0508 49.8876 77.1125 49.491 77.3754 49.3338C77.636 49.1765 77.9035 49.1856 78.3379 49.1856V54.7693C78.3379 55.3117 78.0567 55.649 77.7 55.649V55.8655H80.0777V55.649C79.721 55.649 79.4261 55.3094 79.4261 54.7693V49.1833C79.8605 49.1833 80.128 49.1742 80.3886 49.3315C80.6492 49.491 80.7132 49.8898 80.7475 50.1565H80.9967V48.8027L76.7673 48.805Z" fill="white"/>
<path d="M27.4999 5.06537V8.43153C27.4999 8.71414 27.7308 8.94432 28.0143 8.93976C31.5853 8.90786 52.9566 8.71642 67.1653 8.71642C67.7368 8.71642 67.7368 8.14893 67.1653 8.14893C66.0428 8.14893 35.9451 6.72452 27.9251 4.7349C27.7079 4.68021 27.4999 4.8443 27.4999 5.06537Z" fill="white"/>
<path d="M36.0731 2.92761C36.0731 3.05068 36.1691 3.15324 36.2926 3.16236C36.3589 3.16691 36.4275 3.17147 36.496 3.17603C43.0208 3.6364 56.3745 4.47965 63.5737 3.62273C63.6674 3.61133 63.736 3.53156 63.736 3.43812V0.185908C63.736 0.0696762 63.6308 -0.019207 63.5165 0.00358356C61.6007 0.361395 47.5841 2.90254 36.5303 2.69287H36.3109C36.1783 2.69059 36.0731 2.79543 36.0731 2.92761Z" fill="white"/>
</svg>
